# xmcd
#
# Track frame offsets:
#	150
#	3008
#	21742
#	39500
#	54064
#	69408
#	81349
#	106686
#	119560
#	131925
#	156951
#	173473
#	191542
#	214894
#	219558
#
# Disc length: 3214 seconds
#
# Revision: 1
# Processed by: cddbd v1.5PL3 Copyright (c) Steve Scherf et al.
# Submitted via: EasyCDDAExtractor 7.0.4.1
#
DISCID=cb0c8c0f
DTITLE=Bon Schober - Bum voi auf Minga
DYEAR=2004
DGENRE=National Folk
TTITLE0=Ser's (Text)
TTITLE1=Bumvoi auf Minga
TTITLE2=Bon Schober
TTITLE3=Done aus Barcelona
TTITLE4=Da gr‰ﬂde Depp
TTITLE5=Bergsteigerliad
TTITLE6=Ibiza
TTITLE7=Karolin
TTITLE8=Montag
TTITLE9=Sommer sei
TTITLE10=Gartenblues
TTITLE11=Hans and Otto
TTITLE12=SC Anger
TTITLE13=Hawedehre (Text)
TTITLE14=Gstanzln (M. Traditionell)
EXTD=
EXTT0=
EXTT1=
EXTT2=
EXTT3=
EXTT4=
EXTT5=
EXTT6=
EXTT7=
EXTT8=
EXTT9=
EXTT10=
EXTT11=
EXTT12=
EXTT13=
EXTT14=
PLAYORDER=
